<svg id="Layer_1" data-name="Layer 1" xmlns="http://www.w3.org/2000/svg" viewBox="0 0 747.27 146.4"><defs><style>.cls-1{fill:#222;}</style></defs><title>logo-simple-with-text</title><path class="cls-1" d="M141.45,38.46A75.51,75.51,0,0,0,80.81,8.33c-41.44,0-75,32.77-75,73.2s33.59,73.2,75,73.2a75.51,75.51,0,0,0,60.65-30.13A71.71,71.71,0,0,0,141.45,38.46Zm-60.65,100c-46.34-28.2-41.41-57.93-43-91a150.14,150.14,0,0,0,43-16.86,150.14,150.14,0,0,0,43,16.86C122.22,80.55,127.14,110.28,80.81,138.47Z" transform="translate(-5.78 -8.33)"/><path class="cls-1" d="M66.8,71.27l-4-4.3a1,1,0,0,0-1.38,0l-7.35,7.52-4.73,4.68a1,1,0,0,0,0,1.38l4.73,4.68,7.35,7.52a1,1,0,0,0,1.38,0l4-4.3a0.9,0.9,0,0,0,.06-1.28l-0.06-.06-7.35-7.26,7.35-7.39A0.9,0.9,0,0,0,66.8,71.27Zm46.35,7.91-4.73-4.68L101.08,67a1,1,0,0,0-1.38,0l-4,4.3a0.9,0.9,0,0,0-.06,1.28L95.7,72.6l7.35,7.26L95.7,87.26a0.9,0.9,0,0,0-.06,1.28l0.06,0.06,4,4a1,1,0,0,0,1.38,0l7.35-7.39,4.73-4.68A1,1,0,0,0,113.15,79.18Z" transform="translate(-5.78 -8.33)"/><rect class="cls-1" x="58.48" y="76.07" width="45.55" height="7.61" rx="1.25" ry="1.25" transform="translate(-28.18 118.85) rotate(-69.04)"/><path class="cls-1" d="M273.31,31h27.15l43.2,55.5V31h28.8V136H347l-44.85-57.6V136h-28.8V31Z" transform="translate(-5.78 -8.33)"/><path class="cls-1" d="M384.16,31h29.25V136H384.16V31Z" transform="translate(-5.78 -8.33)"/><path class="cls-1" d="M425.11,31h29.1v79.5h46.85V136H425.11V31Z" transform="translate(-5.78 -8.33)"/><path class="cls-1" d="M510.61,31h29.25V136H510.61V31Z" transform="translate(-5.78 -8.33)"/><path class="cls-1" d="M551.56,31h27.15l43.2,55.5V31h28.8V136H625.2l-44.85-57.6V136h-28.8V31Z" transform="translate(-5.78 -8.33)"/><path class="cls-1" d="M692.46,60.53H661V31h92.1v29.5h-31.5V136h-29.1V60.53Z" transform="translate(-5.78 -8.33)"/><path class="cls-1" d="M231.46,31l-25,40.65L181.36,31H150.61v4.8a77.13,77.13,0,0,1,0,90.84V136h28.5V76l26.7,40.8h0.6l26.85-41.1V136h28.95V31H231.46Z" transform="translate(-5.78 -8.33)"/></svg>