<?xml version="1.0" encoding="utf-8"?>
<!-- Generator: Adobe Illustrator 19.2.0, SVG Export Plug-In . SVG Version: 6.00 Build 0)  -->
<svg version="1.1" id="Layer_1" xmlns="http://www.w3.org/2000/svg" xmlns:xlink="http://www.w3.org/1999/xlink" x="0px" y="0px"
	 viewBox="0 0 20 20" style="enable-background:new 0 0 20 20;" xml:space="preserve">
<style type="text/css">
	.st0{fill:#333333;}
	.st1{fill:#FFFFFF;}
</style>
<path class="st0" d="M0,0h20v20H0V0z"/>
<path class="st1" d="M10.9,15.7c-3.2,0-5.7-2.6-5.7-5.8c0-1,0.3-2,0.8-2.9c0.4-0.8,1.1-1.4,1.9-1.9c2.3-1.4,5.3-1,7.2,1l1.7-1.7
	C14.2,1.8,10.2,1.2,6.9,3C5.6,3.7,4.4,4.8,3.8,6.2C1.7,10.1,3.2,15,7.2,17.1c1.1,0.6,2.4,0.9,3.7,0.9c2.2,0,4.3-0.9,5.8-2.5L15,13.8
	C14,15,12.5,15.7,10.9,15.7z"/>
</svg>
