<?xml version="1.0" encoding="utf-8"?>
<!-- Generator: Adobe Illustrator 19.2.0, SVG Export Plug-In . SVG Version: 6.00 Build 0)  -->
<svg version="1.1" id="Layer_1" xmlns="http://www.w3.org/2000/svg" xmlns:xlink="http://www.w3.org/1999/xlink" x="0px" y="0px"
	 viewBox="0 0 20 20" style="enable-background:new 0 0 20 20;" xml:space="preserve">
<style type="text/css">
	.st0{fill:#494949;}
	.st1{fill:#FFFFFF;}
</style>
<path class="st0" d="M0,0h20v20H0V0z"/>
<path class="st1" d="M14.4,3H5.6L2,8.3L3.5,17H6l-0.2-2h1.3l0.2,2h5.4l0.2-2h1.3L14,17h2.6L18,8.3L14.4,3z M14.4,13.7H5.6L4.9,8.3
	l1.5-2.7h2.3l-0.2,1h2.9l-0.2-1h2.3L15,8.3L14.4,13.7z"/>
<path class="st1" d="M7.5,9h1v3h-1V9z M11.5,9h1v3h-1V9z"/>
</svg>
