<?xml version="1.0" encoding="utf-8"?>
<!-- Generator: Adobe Illustrator 19.2.0, SVG Export Plug-In . SVG Version: 6.00 Build 0)  -->
<svg version="1.1" id="Layer_1" xmlns="http://www.w3.org/2000/svg" xmlns:xlink="http://www.w3.org/1999/xlink" x="0px" y="0px"
	 viewBox="0 0 20 20" style="enable-background:new 0 0 20 20;" xml:space="preserve">
<style type="text/css">
	.st0{fill:#215893;}
	.st1{fill:#FFFFFF;}
</style>
<path class="st0" d="M0,0h20v20H0V0z"/>
<path class="st1" d="M10,15.7c-3.2,0-5.7-2.6-5.7-5.8c0-1,0.3-2,0.8-2.9C5.6,6.2,6.2,5.6,7,5.1c2.3-1.4,5.3-1,7.2,1l1.7-1.7
	C13.3,1.8,9.3,1.2,6.1,3C4.7,3.7,3.6,4.8,2.9,6.2C0.8,10.1,2.3,15,6.3,17.1C7.4,17.7,8.7,18,10,18c2.2,0,4.3-0.9,5.8-2.5l-1.7-1.7
	C13.1,15,11.6,15.7,10,15.7z"/>
<rect x="11" y="8" class="st1" width="1" height="4.2"/>
<rect x="9.4" y="9.7" class="st1" width="4.2" height="1"/>
<rect x="16.3" y="8" class="st1" width="1" height="4.2"/>
<rect x="14.7" y="9.7" class="st1" width="4.2" height="1"/>
</svg>
