<?xml version="1.0" encoding="utf-8"?>
<!-- Generator: Adobe Illustrator 19.2.0, SVG Export Plug-In . SVG Version: 6.00 Build 0)  -->
<svg version="1.1" id="Layer_1" xmlns="http://www.w3.org/2000/svg" xmlns:xlink="http://www.w3.org/1999/xlink" x="0px" y="0px"
	 viewBox="0 0 20 20" style="enable-background:new 0 0 20 20;" xml:space="preserve">
<style type="text/css">
	.st0{fill:#707070;}
	.st1{fill:#FFFFFF;}
</style>
<path class="st0" d="M0,0h20v20H0V0z"/>
<path class="st1" d="M14.8,12.8c-0.2,0.4-0.4,0.8-0.6,1.2c-0.2,0.4-0.5,0.7-0.8,1c-0.3,0.3-0.7,0.4-1.1,0.5c-0.3,0-0.7-0.1-1-0.2
	c-0.3-0.1-0.7-0.2-1-0.2c-0.4,0-0.7,0.1-1.1,0.2c-0.3,0.1-0.6,0.2-0.9,0.2c-0.4,0-0.8-0.2-1.1-0.5c-0.3-0.3-0.6-0.6-0.9-1
	c-0.4-0.6-0.7-1.2-0.9-1.8C5.1,11.5,5,10.7,5,10c0-0.7,0.1-1.5,0.5-2.1c0.3-0.5,0.6-0.8,1.1-1.1C7,6.5,7.5,6.4,8,6.4
	c0.4,0,0.8,0.1,1.1,0.3c0.3,0.1,0.6,0.2,0.9,0.3c0.3-0.1,0.7-0.2,1-0.3c0.4-0.2,0.9-0.3,1.4-0.2c0.9,0,1.7,0.5,2.3,1.2
	c-1.3,0.7-1.7,2.3-1,3.5c0.1,0.2,0.3,0.5,0.5,0.6c0.2,0.2,0.5,0.4,0.8,0.6L14.8,12.8L14.8,12.8z M12.5,3.8c0,0.6-0.2,1.2-0.7,1.7
	C11.4,6,10.7,6.4,10,6.4c0-0.1,0-0.2,0-0.2c0-1,0.6-1.9,1.5-2.3c0.3-0.2,0.7-0.2,1-0.3L12.5,3.8L12.5,3.8z"/>
</svg>
