<?xml version="1.0" encoding="utf-8"?>
<!-- Generator: Adobe Illustrator 19.2.0, SVG Export Plug-In . SVG Version: 6.00 Build 0)  -->
<svg version="1.1" id="Layer_1" xmlns="http://www.w3.org/2000/svg" xmlns:xlink="http://www.w3.org/1999/xlink" x="0px" y="0px"
	 viewBox="0 0 20 20" style="enable-background:new 0 0 20 20;" xml:space="preserve">
<style type="text/css">
	.st0{fill:#333333;}
	.st1{fill:#FFFFFF;}
</style>
<path class="st0" d="M0,0h20v20H0V0z"/>
<path class="st1" d="M18,10c0-1.2-1.1-2.2-2.9-2.9c0.3-1.9-0.1-3.4-1.1-4c-0.3-0.2-0.7-0.3-1-0.3c-1.1,0.1-2.2,0.6-3,1.3
	C9.2,3.4,8.1,2.9,7,2.8c-0.3,0-0.7,0.1-1,0.3c-1,0.6-1.4,2.1-1.1,4C3.1,7.8,2,8.8,2,10s1.1,2.2,2.9,3C4.6,14.9,5,16.4,6,17
	c0.3,0.2,0.7,0.3,1,0.3c1.1-0.1,2.2-0.6,3-1.3c0.8,0.8,1.9,1.2,3,1.3c0.3,0,0.7-0.1,1-0.3c1-0.6,1.4-2.1,1.1-4
	C16.9,12.2,18,11.2,18,10z M13,3.8c0.2,0,0.4,0,0.5,0.1c0.5,0.3,0.8,1.3,0.6,2.8c-0.7-0.2-1.3-0.3-2-0.4c-0.4-0.5-0.9-1-1.4-1.5
	C11.4,4.3,12.2,3.9,13,3.8z M13.7,11.3c0.1,0.4,0.2,0.7,0.3,1c-0.3,0.1-0.7,0.2-1,0.3c0.1-0.2,0.3-0.4,0.4-0.6S13.5,11.5,13.7,11.3
	L13.7,11.3z M12.5,11.4c-0.3,0.5-0.6,0.9-0.9,1.3c-0.5,0.1-1,0.1-1.6,0.1c-0.5,0-1,0-1.6-0.1c-0.3-0.4-0.6-0.9-0.9-1.3
	c-0.3-0.5-0.5-0.9-0.7-1.4c0.2-0.5,0.5-1,0.7-1.4c0.3-0.5,0.6-0.9,0.9-1.3c1-0.1,2.1-0.1,3.1,0c0.3,0.4,0.6,0.9,0.9,1.3
	C12.7,9,13,9.5,13.2,10C13,10.5,12.7,10.9,12.5,11.4L12.5,11.4z M10,14.6c-0.2-0.2-0.5-0.5-0.7-0.7h1.4C10.5,14.1,10.2,14.3,10,14.6
	z M6.7,11.9c0.1,0.2,0.3,0.4,0.4,0.6c-0.3-0.1-0.7-0.2-1-0.3c0.1-0.3,0.2-0.7,0.3-1C6.5,11.5,6.6,11.7,6.7,11.9z M6.3,8.7
	C6.2,8.4,6.1,8,6,7.7c0.3-0.1,0.7-0.2,1-0.3C6.9,7.7,6.8,7.9,6.6,8.1S6.4,8.5,6.3,8.7z M10,5.4c0.2,0.2,0.5,0.5,0.7,0.7H9.3
	C9.5,5.9,9.8,5.7,10,5.4z M13.3,8.1c-0.1-0.2-0.3-0.4-0.4-0.6c0.4,0.1,0.7,0.2,1.1,0.3c-0.1,0.3-0.2,0.7-0.3,1
	C13.6,8.5,13.4,8.3,13.3,8.1z M6.5,3.9C6.7,3.9,6.8,3.8,7,3.8c0.8,0.1,1.6,0.5,2.2,1c-0.5,0.5-0.9,1-1.3,1.5c-0.7,0.1-1.3,0.2-2,0.4
	C5.7,5.3,6,4.2,6.5,3.9z M3,10c0-0.6,0.8-1.4,2.1-1.9C5.3,8.7,5.5,9.4,5.8,10c-0.3,0.6-0.5,1.3-0.7,2C3.8,11.4,3,10.6,3,10z M7,16.2
	c-0.2,0-0.4,0-0.5-0.1c-0.5-0.3-0.8-1.2-0.7-2.4v-0.4c0.7,0.2,1.3,0.3,2,0.4c0.4,0.5,0.9,1,1.4,1.5C8.6,15.7,7.8,16.1,7,16.2z
	 M14.1,13.6c0.1,1.2-0.1,2.1-0.7,2.4c-0.2,0.1-0.3,0.1-0.5,0.1c-0.8-0.1-1.6-0.5-2.2-1c0.5-0.5,0.9-1,1.4-1.5c0.7-0.1,1.3-0.2,2-0.4
	C14.1,13.4,14.2,13.5,14.1,13.6L14.1,13.6z M14.9,12c-0.2-0.7-0.4-1.4-0.6-2c0.3-0.6,0.5-1.3,0.6-1.9C16.2,8.6,17,9.4,17,10
	S16.2,11.4,14.9,12z"/>
<circle class="st1" cx="10" cy="10" r="1"/>
</svg>
