<?xml version="1.0" encoding="utf-8"?>
<!-- Generator: Adobe Illustrator 19.2.0, SVG Export Plug-In . SVG Version: 6.00 Build 0)  -->
<svg version="1.1" id="Layer_1" xmlns="http://www.w3.org/2000/svg" xmlns:xlink="http://www.w3.org/1999/xlink" x="0px" y="0px"
	 viewBox="0 0 200 200" style="enable-background:new 0 0 200 200;" xml:space="preserve">
<style type="text/css">
	.st0{fill:#333333;}
	.st1{fill:#FFFFFF;}
</style>
<g id="fond">
	<rect x="-1" class="st0" width="202" height="199.7"/>
</g>
<g id="compacte">
	<g>
		<path class="st1" d="M98.9,19.4c-45.9,0-83.1,37.2-83.1,83.1c0,45.9,37.2,83.1,83.1,83.1c45.9,0,83.1-37.2,83.1-83.1
			C182,56.6,144.8,19.4,98.9,19.4z M143.7,67.5c-3.8,0.1-6.5-2.2-6.6-5.7c0-1.3,0.3-2.4,1.2-3.7c0.9-1.7,1-1.9,1-2.6
			c-0.1-2.2-3.4-2.3-4.3-2.2c-12.5,0.4-15.8,17.2-18.4,30.9l-1.3,7.2c7.2,1.1,12.3-0.2,15.1-2.1c4-2.6-1.1-5.3-0.5-8.2
			c0.7-3,3.4-4.5,5.6-4.5c3-0.1,5.2,3.1,5.2,6.3c-0.1,5.3-7.1,12.6-21.2,12.3c-1.7,0-3.3-0.2-4.8-0.3l-2.7,14.7
			c-2.4,11.1-5.5,26.3-16.8,39.5c-9.7,11.5-19.6,13.3-24,13.5c-8.3,0.3-13.7-4.1-13.9-10c-0.2-5.7,4.8-8.8,8.1-8.9
			c4.4-0.1,7.5,3,7.6,6.7c0.1,3.1-1.5,4.1-2.6,4.7c-0.7,0.6-1.8,1.2-1.8,2.4c0,0.6,0.6,1.8,2.5,1.8c3.5-0.1,5.8-1.8,7.4-3
			c8-6.7,11.1-18.4,15.2-39.6l0.9-5.2c1.4-6.9,2.9-14.6,5.3-22.3c-5.7-4.3-9.1-9.6-16.7-11.6c-5.2-1.4-8.4-0.2-10.7,2.6
			c-2.7,3.4-1.8,7.7,0.8,10.3l4.2,4.7c5.2,6,8,10.7,7,16.9c-1.7,10-13.6,17.7-27.8,13.4c-12.1-3.7-14.3-12.2-12.9-16.9
			c1.3-4.1,4.6-4.9,7.8-3.9c3.4,1.1,4.8,5.3,3.8,8.5c-0.1,0.3-0.3,0.9-0.6,1.7c-0.4,0.9-1.1,1.7-1.5,2.7c-0.8,2.5,2.7,4.3,5.1,5.1
			c5.4,1.7,10.7-1.2,12-5.5c1.2-4-1.3-6.8-2.3-7.9l-5.1-5.5c-2.3-2.6-7.5-9.9-5-18c1-3.1,3-6.5,6-8.7c6.2-4.6,13-5.4,19.5-3.6
			c8.4,2.4,12.4,7.9,17.6,12.2c2.9-8.5,6.9-16.9,13-24c5.5-6.4,12.9-11.1,21.3-11.4c8.4-0.3,14.8,3.5,15,9.6
			C150.3,62.3,148.8,67.3,143.7,67.5z"/>
	</g>
</g>
<g id="rectangle">
</g>
<g id="carré">
</g>
</svg>
