<?xml version="1.0" standalone="no"?>
<!DOCTYPE svg PUBLIC "-//W3C//DTD SVG 20010904//EN"
 "http://www.w3.org/TR/2001/REC-SVG-20010904/DTD/svg10.dtd">
<svg version="1.0" xmlns="http://www.w3.org/2000/svg"
 width="1024.000000pt" height="1024.000000pt" viewBox="0 0 1024.000000 1024.000000"
 preserveAspectRatio="xMidYMid meet">
<metadata>
Created by potrace 1.11, written by Peter Selinger 2001-2013
</metadata>
<g transform="translate(0.000000,1024.000000) scale(0.100000,-0.100000)"
fill="#000000" stroke="none">
<path d="M4828 10005 c-2 -2 -48 -6 -103 -10 -55 -3 -111 -8 -125 -10 -14 -2
-56 -6 -93 -10 -37 -3 -78 -8 -90 -11 -12 -3 -40 -7 -62 -9 -22 -3 -51 -7 -65
-10 -13 -2 -42 -7 -65 -11 -22 -3 -103 -19 -180 -35 -174 -37 -155 -33 -272
-64 -54 -15 -102 -28 -108 -29 -238 -59 -711 -254 -1015 -418 -197 -107 -539
-330 -675 -440 -279 -226 -444 -378 -613 -564 -30 -33 -68 -75 -86 -94 -107
-117 -288 -352 -403 -525 -305 -459 -530 -966 -663 -1495 -37 -146 -81 -360
-93 -455 -3 -22 -11 -78 -17 -124 -48 -353 -45 -990 5 -1252 2 -9 7 -40 10
-70 11 -79 13 -88 25 -149 6 -30 13 -66 15 -80 6 -29 8 -42 29 -135 22 -94 21
-91 51 -202 38 -141 118 -376 177 -522 61 -152 219 -480 277 -574 22 -37 41
-70 41 -72 0 -6 55 -92 149 -235 286 -435 704 -876 1149 -1213 82 -62 326
-228 417 -284 489 -298 1063 -522 1637 -637 71 -15 145 -29 165 -32 71 -10 88
-13 138 -20 28 -3 58 -8 67 -10 9 -1 48 -6 85 -9 37 -4 82 -8 98 -10 202 -24
757 -25 940 -1 17 2 66 7 110 11 44 4 82 9 85 10 3 2 34 6 70 10 36 4 67 8 70
10 3 2 28 6 55 9 41 6 368 75 425 90 8 2 33 9 55 14 439 108 1033 371 1444
640 89 58 322 221 331 231 3 3 39 33 80 66 330 263 653 597 901 935 80 108
211 300 235 345 6 11 44 76 83 144 86 146 212 403 270 551 23 58 46 114 51
125 59 125 198 615 224 789 4 21 8 41 10 45 2 3 7 29 10 56 4 28 9 57 11 65 2
8 6 38 10 65 3 28 8 70 11 95 3 25 7 55 9 66 2 12 6 61 10 110 4 49 9 105 11
124 6 49 6 537 0 585 -2 22 -7 78 -11 125 -8 109 -12 145 -19 200 -41 299
-113 619 -201 885 -53 159 -123 345 -136 359 -5 6 -9 15 -9 22 0 14 -71 168
-132 289 -328 645 -781 1198 -1354 1656 -44 35 -93 73 -108 84 -16 11 -47 34
-70 51 -264 196 -667 422 -1026 574 -41 18 -79 33 -85 34 -5 2 -21 7 -35 13
-177 72 -620 204 -755 226 -16 3 -64 12 -105 20 -85 18 -241 44 -315 52 -27 4
-61 8 -74 10 -13 3 -61 7 -105 11 -45 3 -97 8 -116 11 -39 5 -657 13 -662 8z
m403 -1566 c240 -138 679 -356 944 -469 11 -5 45 -20 75 -33 30 -13 120 -50
200 -82 80 -31 177 -70 215 -85 107 -43 629 -217 740 -246 224 -60 436 -114
507 -129 68 -14 86 -21 83 -34 -1 -9 -6 -106 -10 -216 -7 -205 -9 -301 -20
-695 -10 -380 -25 -716 -41 -890 -2 -30 -7 -82 -9 -115 -5 -70 -14 -149 -20
-185 -2 -14 -7 -54 -11 -90 -3 -36 -8 -74 -10 -84 -2 -11 -6 -40 -9 -65 -3
-25 -7 -57 -10 -71 -3 -14 -7 -38 -10 -55 -2 -16 -6 -40 -9 -51 -2 -12 -7 -39
-10 -60 -26 -161 -112 -490 -182 -696 -76 -225 -228 -562 -323 -718 -12 -19
-27 -46 -34 -60 -17 -36 -147 -234 -228 -350 -42 -60 -170 -222 -229 -290 -12
-14 -45 -52 -73 -85 -102 -118 -413 -422 -547 -534 -14 -12 -34 -29 -45 -39
-32 -29 -212 -172 -305 -243 -173 -133 -434 -312 -667 -457 l-82 -52 -52 31
c-86 50 -390 250 -484 317 -235 168 -566 432 -705 562 -604 564 -979 1094
-1237 1750 -127 325 -207 633 -278 1070 -7 44 -34 253 -40 308 -3 28 -7 73
-10 100 -9 86 -22 258 -30 397 -11 199 -15 298 -30 855 -12 427 -15 519 -20
620 l-5 106 102 23 c57 13 103 22 103 21 0 -1 13 3 28 9 15 6 42 13 60 17 41
7 354 92 387 105 14 5 34 11 45 13 11 2 109 34 217 70 174 58 247 85 504 181
114 43 423 174 592 252 259 120 735 367 827 429 11 8 20 14 20 14 1 0 57 -32
126 -71z"/>
<path d="M5415 6574 c-14 -15 -25 -31 -25 -35 0 -5 -57 -156 -126 -336 -69
-180 -186 -488 -261 -683 -74 -195 -141 -368 -148 -385 -7 -16 -45 -115 -84
-220 -40 -104 -76 -199 -81 -210 -5 -11 -35 -87 -66 -170 -30 -82 -89 -237
-130 -342 -41 -106 -74 -204 -74 -218 0 -44 39 -68 212 -134 221 -84 212 -87
282 94 288 746 887 2313 912 2384 45 128 41 135 -103 191 -162 63 -240 90
-263 90 -12 0 -32 -12 -45 -26z"/>
<path d="M3905 6020 c-11 -4 -56 -45 -100 -90 -44 -46 -219 -224 -390 -397
-219 -222 -311 -321 -313 -340 -3 -22 37 -66 277 -307 154 -154 333 -336 399
-403 142 -148 149 -150 226 -70 206 214 246 261 239 285 -2 10 -112 126 -243
257 l-238 238 231 234 c128 128 236 242 240 252 13 28 -6 56 -133 191 -63 67
-117 126 -120 130 -10 16 -55 28 -75 20z"/>
<path d="M6255 5957 c-165 -171 -225 -241 -225 -265 0 -18 59 -83 241 -262
l241 -238 -241 -243 c-188 -188 -241 -247 -241 -267 0 -19 34 -60 142 -169
121 -122 147 -143 173 -143 27 0 77 47 428 398 312 312 397 403 397 423 0 19
-59 85 -262 291 -145 146 -321 325 -393 398 -80 81 -141 136 -160 141 -27 8
-34 4 -100 -64z"/>
</g>
</svg>
