<?xml version="1.0" standalone="no"?>
<!DOCTYPE svg PUBLIC "-//W3C//DTD SVG 20010904//EN"
 "http://www.w3.org/TR/2001/REC-SVG-20010904/DTD/svg10.dtd">
<svg version="1.0" xmlns="http://www.w3.org/2000/svg"
 width="1024.000000pt" height="1024.000000pt" viewBox="0 0 1024.000000 1024.000000"
 preserveAspectRatio="xMidYMid meet">
<metadata>
Created by potrace 1.11, written by Peter Selinger 2001-2013
</metadata>
<g transform="translate(0.000000,1024.000000) scale(0.100000,-0.100000)"
fill="#000000" stroke="none">
<path d="M1710 9385 l0 -855 -855 0 -855 0 0 -640 0 -640 855 0 855 0 0 -745
0 -745 -855 0 -855 0 0 -640 0 -640 855 0 855 0 0 -745 0 -745 -855 0 -855 0
0 -640 0 -640 855 0 855 0 0 -855 0 -855 640 0 640 0 0 855 0 855 745 0 745 0
0 -855 0 -855 640 0 640 0 0 855 0 855 745 0 745 0 0 -855 0 -855 640 0 640 0
0 855 0 855 855 0 855 0 0 640 0 640 -855 0 -855 0 0 745 0 745 855 0 855 0 0
640 0 640 -855 0 -855 0 0 745 0 745 855 0 855 0 0 640 0 640 -855 0 -855 0 0
855 0 855 -640 0 -640 0 0 -855 0 -855 -745 0 -745 0 0 855 0 855 -640 0 -640
0 0 -855 0 -855 -745 0 -745 0 0 855 0 855 -640 0 -640 0 0 -855z m2770 -2880
l0 -745 -745 0 -745 0 0 745 0 745 745 0 745 0 0 -745z m2770 0 l0 -745 -745
0 -745 0 0 745 0 745 745 0 745 0 0 -745z m-2770 -2770 l0 -745 -745 0 -745 0
0 745 0 745 745 0 745 0 0 -745z m2770 0 l0 -745 -745 0 -745 0 0 745 0 745
745 0 745 0 0 -745z"/>
</g>
</svg>
