<svg id="Layer_1" data-name="Layer 1" xmlns="http://www.w3.org/2000/svg" viewBox="0 0 160.05 160.05"><defs><style>.cls-1{fill:#121212;}.cls-2{fill:#fff;}</style></defs><title>lint-logo</title><circle class="cls-1" cx="80.03" cy="80.03" r="80.03"/><circle class="cls-1" cx="80.03" cy="80.03" r="80.03"/><path class="cls-2" d="M81.5,143.75C28.35,113.05,34,80.69,32.23,44.66A177.44,177.44,0,0,0,81.5,26.3a177.44,177.44,0,0,0,49.27,18.36C129,80.69,134.65,113.05,81.5,143.75Z" transform="translate(-1.47 -1.47)"/><path class="cls-1" d="M66,70.6l-4.35-4.5a1.16,1.16,0,0,0-1.5,0l-8,7.87L47,78.87a1,1,0,0,0,0,1.44l5.14,4.9,8,7.87a1.16,1.16,0,0,0,1.5,0L66,88.59a0.92,0.92,0,0,0,.06-1.33L66,87.19l-8-7.6,8-7.74A0.92,0.92,0,0,0,66,70.6Zm50.43,8.28L111.3,74l-8-7.87a1.16,1.16,0,0,0-1.5,0l-4.35,4.5a0.92,0.92,0,0,0-.06,1.33L97.46,72l8,7.6-8,7.74a0.92,0.92,0,0,0-.06,1.33l0.06,0.06L101.81,93a1.16,1.16,0,0,0,1.5,0l8-7.74,5.14-4.9A1,1,0,0,0,116.44,78.87Z" transform="translate(-1.47 -1.47)"/><path class="cls-1" d="M69.49,99.22L86.25,57.13A1.37,1.37,0,0,1,88,56.38l5.2,1.91A1.29,1.29,0,0,1,94,60L77.22,102.06a1.37,1.37,0,0,1-1.75.75l-5.2-1.91A1.29,1.29,0,0,1,69.49,99.22Z" transform="translate(-1.47 -1.47)"/></svg>