<?xml version="1.0" encoding="utf-8"?>
<!-- Generator: Adobe Illustrator 19.2.0, SVG Export Plug-In . SVG Version: 6.00 Build 0)  -->
<svg version="1.1" id="Layer_1" xmlns="http://www.w3.org/2000/svg" xmlns:xlink="http://www.w3.org/1999/xlink" x="0px" y="0px"
	 viewBox="0 0 170 170" style="enable-background:new 0 0 170 170;" xml:space="preserve">
<style type="text/css">
	.st0{fill:#111111;stroke:#000000;stroke-miterlimit:10;}
	.st1{fill:#FFFFFF;}
</style>
<rect x="0" class="st0" width="170" height="170"/>
<title>lint-logo-light</title>
<path class="st1" d="M149.5,39.2C134.3,18.9,110.4,7.1,85,7.2C40.9,7.1,5.2,42,5.2,85s35.7,77.9,79.8,77.9
	c25.3,0.1,49.3-11.8,64.5-32C169.9,103.7,169.9,66.3,149.5,39.2z M85,145.6c-49.3-30-44-61.6-45.7-96.8c16.1-3.6,31.5-9.6,45.7-17.9
	c14.2,8.3,29.6,14.4,45.7,17.9C129.1,83.9,134.3,115.6,85,145.6z"/>
<path class="st1" d="M71,74.7l-4-4.3c-0.4-0.4-1-0.4-1.4,0L58.3,78l-4.7,4.7c-0.4,0.4-0.4,1,0,1.4l4.7,4.7l7.4,7.5
	c0.4,0.4,1,0.4,1.4,0l4-4.3c0.4-0.3,0.4-0.9,0.1-1.3c0,0,0,0,0,0L71,90.6l-7.3-7.3l7.3-7.4C71.3,75.6,71.3,75.1,71,74.7z
	 M117.3,82.6l-4.7-4.7l-7.3-7.5c-0.4-0.4-1-0.4-1.4,0l-4,4.3c-0.4,0.3-0.4,0.9-0.1,1.3c0,0,0,0,0,0l0.1,0l7.3,7.3l-7.3,7.4
	c-0.4,0.3-0.4,0.9-0.1,1.3c0,0,0,0,0,0l0.1,0.1l4,4c0.4,0.4,1,0.4,1.4,0l7.3-7.4l4.7-4.7C117.7,83.6,117.7,83,117.3,82.6z"/>
<path class="st1" d="M74.2,102.1l15.4-40.2c0.2-0.6,1-1,1.6-0.7L96,63c0.6,0.2,1,1,0.7,1.6l-15.4,40.2c-0.2,0.6-1,1-1.6,0.7
	l-4.8-1.8C74.3,103.4,74,102.7,74.2,102.1z"/>
</svg>
