<svg id="Layer_1" data-name="Layer 1" xmlns="http://www.w3.org/2000/svg" viewBox="0 0 159.61 155.73"><defs><style>.cls-1{fill:#fff;}</style></defs><title>omnilint-logo-light</title><path class="cls-1" d="M145.32,35.71a80.32,80.32,0,0,0-64.51-32C36.73,3.67,1,38.53,1,81.53s35.73,77.86,79.81,77.86a80.32,80.32,0,0,0,64.51-32A76.28,76.28,0,0,0,145.32,35.71ZM80.81,142.1c-49.29-30-44.05-61.62-45.69-96.83A159.7,159.7,0,0,0,80.81,27.33a159.7,159.7,0,0,0,45.69,17.94C124.86,80.48,130.09,112.11,80.81,142.1Z" transform="translate(-1 -3.67)"/><path class="cls-1" d="M66.8,71.27l-4-4.3a1,1,0,0,0-1.38,0l-7.35,7.52-4.73,4.68a1,1,0,0,0,0,1.38l4.73,4.68,7.35,7.52a1,1,0,0,0,1.38,0l4-4.3a0.9,0.9,0,0,0,.06-1.28l-0.06-.06-7.35-7.26,7.35-7.39A0.9,0.9,0,0,0,66.8,71.27Zm46.35,7.91-4.73-4.68L101.08,67a1,1,0,0,0-1.38,0l-4,4.3a0.9,0.9,0,0,0-.06,1.28L95.7,72.6l7.35,7.26L95.7,87.26a0.9,0.9,0,0,0-.06,1.28l0.06,0.06,4,4a1,1,0,0,0,1.38,0l7.35-7.39,4.73-4.68A1,1,0,0,0,113.15,79.18Z" transform="translate(-1 -3.67)"/><rect class="cls-1" x="58.48" y="76.07" width="45.55" height="7.61" rx="1.25" ry="1.25" transform="translate(-23.4 123.51) rotate(-69.04)"/></svg>