<?xml version="1.0" encoding="utf-8"?>
<!-- Generator: Adobe Illustrator 19.2.0, SVG Export Plug-In . SVG Version: 6.00 Build 0)  -->
<svg version="1.1" id="Assistant" xmlns="http://www.w3.org/2000/svg" xmlns:xlink="http://www.w3.org/1999/xlink" x="0px" y="0px"
	 viewBox="0 0 1024 1024" style="enable-background:new 0 0 1024 1024;" xml:space="preserve">
<style type="text/css">
	.st0{fill:#A5A5A5;}
	.st1{fill:#FFFFFF;}
</style>
<g id="Layer_2">
	<circle class="st0" cx="511" cy="511" r="448"/>
</g>
<image style="display:none;overflow:visible;enable-background:new    ;" width="1024" height="1024" id="Blue_Disk" xlink:href="../../../../../../Documents/Omnilint/Desktop Icon/New/omnilint-empty-icon.png" >
</image>
<g id="Face">
	<path class="st1" d="M400.2,572c9.8,10.3,20.5,20.5,25,56.5s19,63-8.5,41s-16-20.5-25.5-58S369.2,539.5,400.2,572z"/>
	<path class="st1" d="M696.8,326.3c-3.2-14-12.9-69.9-26.4-88.3c-34.7-47-108.2-84-162-84c-73.2,0-155.7,63.7-182.7,93.3
		s-19.3,51.3,7,90c27.7,34,27.7,54.7,29.7,75.3s2,33.3,7.7,76.3c4.3,32.6,4,32.7,34,58.3c16,14.3,17.7,27,20,36s10.3,50,12,69.7
		s6.3,32.7,19.3,43.3c46.3,29.7,46.8,60.4,70.4,62.8c34.1,4.7,86.5-9.8,96.5-15.1s8.9-12.4,10-17.3c6.3-28.7,20.6-41.6,28-50.3
		c4.6-5.4,6-15,6-20.3s3-85.7,3-102s8.3-25.7,19.7-40s9-25.7,8.3-29.7s-2.3-15.6-3.3-22.7c-4-28.3,4.5-58.9,9-73
		C710.6,364.8,700.3,341.4,696.8,326.3z M555.1,630.7c-19.3,6-39.3,10.7-55.3,24s-21.3,12-13.3-6c8.1-18.3,39.3-33.3,50-35.3
		s9.3-11.3,12.7-18s20-24,19.3-4.7S574.4,624.7,555.1,630.7z M622.8,644.7c-8.5-6.2-17.7-11.5-27.3-15.8c-11.2-4.8-15.7-9.5-16-13.2
		s-2.7-21.7-1.7-28.2c2.5-16.7,16.8,2.7,18.8,8.7s4.2,8,11.8,13.2s16.2,10,22.7,28.3S627.4,648.2,622.8,644.7z M502.1,456.7
		c-2.5-10.7-7.3-11-27.3-7s-42.3-0.3-50.3-3.7s-6.7-4.7-10.3-5s-3.7-4.7,2-7.3s36.3-13.7,36.3-13.7c18.7-4.7,40.3-0.7,28.7-12
		c-1.4-1.3-22-21.3-39.3-3.3c-22.4,23.3-27.6,21-22,15c2.4-2.6,16.2-21.6,31.3-25c14.4-3.2,5.8-8.1-7.5-13
		c-12-1.9-18.4,2.2-42.9,18.3c-33.1,21.8,5.5-36.5,32.5-55c17.6-12,10.7,6.8,46,12.5c53,8.5,59.5-29.9,52.5,19
		c-0.7,4.6-1.6,8.9-3.8,12.3c3.2,4.5,6.3,9,8.1,12.2c4.7,8.3,6,18.3,4.7,24.3s-3.7,18.7,2.3,32s18.3,46,15.3,65
		c-3,19-5,38.7,18,38.7s18-19.7,14-32.7s-3.7-41.3,0-58.7s0.3-32-5.3-40.7s-11-19-5-37.7c1.9-5.8,4.2-11.4,7.1-16.8
		c-2.9-3.2-5.3-6.7-7.3-10.4c-10.6-18.9-20.5-42.4-8.1-23.5c23.5,35.9,64-43.6,99.5-11.1c17.5,16,50.9,70,7.2,36
		c-17.3-13.5-23-14.2-37.4-6.8c-11.2,8.5-22.5,20.1-4.6,23c29,4.7,14.7,7.3,21.7,15.7s7.3,13.3,0.3,6S643.8,389,633.8,386
		s-17.7-5-25,6.7s-10.7,16.7,2.7,13s40.7,3.7,47,6.3s8.7,4.7,3.3,10.3s-33.7,14.3-47,11.3s-16.7,18.3-19,39.7s-5.3,37.3-1,48.7
		s21.7,31,7.3,42s-19,16.7-45.7,11.3s-34.7-7-29.7-30.7s-4.3-21.7-14-32s-7.9-19.7-8.3-34.7"/>
</g>
<g id="Ear">
	<path class="st1" d="M364.8,547.2c-1.5-9.5-5.2-41.5-8.8-63c-5.5-33.8-26.8-80.5-41.2-80.5c-4.8,0-5,2-10.2,3s-10.2,4.8-16.5,17
		s-1.5,30,0,45.8c3.8,38.2,11,31.5,38,69c10.8,15,23,16,30.5,15.2S366.2,556.8,364.8,547.2z M349.1,531c-4.7,0.2-6.3-6.5-20.2-14.3
		s-24.2-13.6-21.7-42.3c1.5-17.1,9.6-12.1,12.2-11.3c4,1.2,3.1-6,0.8-10.2s-6-9.6-8-2.1c-1.4,5.4-4.2,6.9-7.5,8.9s-8.8-0.7-1.7-11.2
		s5-10.8,3.7-13.3s-4.4-5.5-7.2-3.2s-12.2,3.3-3.2-5.3s19.2,5.8,28.6,17c10.3,12.2,18.6,22.5,11.2,37c-4.2,8.3-3.2,17.2,3.8,21
		s12.5,15.5,13,19.8S353.8,530.8,349.1,531z"/>
	<path class="st1" d="M316.2,489.5c12,30,34,29.5,11,6.5c-8.1-8.1,15-26.6-3-27C309.6,468.7,316.2,489.5,316.2,489.5z"/>
</g>
<g id="Bow">
	<path class="st1" d="M384.8,721.2c3.1,2.8,24.6,27.1,65.5,50.8c1.6,1,3.7,0.4,4.7-1.2c0.3-0.5,0.5-1.1,0.5-1.8l0,0
		c0-1.9,1.5-3.4,3.4-3.4c0.5,0,1,0.1,1.4,0.3l100.5,44.5c0.4,0.2,0.9,0.3,1.4,0.3l13.4,0.1c0.6,0,1.1-0.1,1.6-0.4l83-44.3
		c1.7-0.9,3.7-0.3,4.6,1.4c0.3,0.5,0.4,1,0.4,1.6v83.8c0,1.9-1.5,3.4-3.4,3.4c-0.3,0-0.6,0-0.9-0.1l-84.1-22c-0.3-0.1-0.7-0.1-1-0.1
		l-15,0.4c-0.4,0-0.7,0.1-1.1,0.2L460,870c-1.8,0.6-3.7-0.3-4.4-2.1c-0.1-0.4-0.2-0.8-0.2-1.2V817c0-1.3-0.7-2.4-1.8-3
		c-9-4.7-48.9-27.1-72.3-53.4c-2-2.2-2.8-4-3-9.8C377.5,733.9,376.8,714,384.8,721.2z"/>
</g>
<g id="Eyes">
	<path class="st1" d="M470.1,425c8.8-1.4,17-3.3,22.3,4s0,13.7-9.7,15.3s-21.3,4-23-3.3s-1.7-7.7-4-4.3s-4.3,3.3-7,0.7s-1.3-7,2-6.7
		S459.8,426.7,470.1,425z"/>
	<path class="st1" d="M427.4,435.3c0,0-2.3,4.7,0.7,5S433.1,435.7,427.4,435.3z"/>
	<path class="st1" d="M616.8,412.7c5.9-1.2,7,3,5.7,6.3s-2.7,6.3-6.7,2S610.4,414,616.8,412.7z"/>
	<path class="st1" d="M641.4,412.7c17.1,1,25.3,6,9.7,13.3s-23.7,9-24-4.3S629.8,412,641.4,412.7z"/>
</g>
</svg>
