<svg id="Assistant" xmlns="http://www.w3.org/2000/svg" xmlns:xlink="http://www.w3.org/1999/xlink" viewBox="0 0 896.03 896.03"><defs><style>.cls-1{fill:url(#linear-gradient);}.cls-2{fill:#fff;}</style><linearGradient id="linear-gradient" x1="448.02" y1="896.03" x2="448.02" gradientUnits="userSpaceOnUse"><stop offset="0" stop-color="#006ee0"/><stop offset="1" stop-color="#4390e0"/></linearGradient></defs><title>gatrix-assistant-icon</title><g id="Layer_2" data-name="Layer 2"><circle class="cls-1" cx="448.02" cy="448.02" r="448.02"/></g><g id="Face"><path class="cls-2" d="M400.25,572c9.81,10.28,20.5,20.5,25,56.5s19,63-8.5,41-16-20.5-25.5-58S369.25,539.5,400.25,572Z" transform="translate(-62.98 -62.98)"/><path class="cls-2" d="M696.84,326.26c-3.21-14-12.91-69.94-26.42-88.26-34.67-47-108.17-84-162-84-73.17,0-155.67,63.67-182.67,93.33s-19.33,51.33,7,90c27.67,34,27.67,54.67,29.67,75.33s2,33.33,7.67,76.33c4.3,32.63,4,32.67,34,58.33,16,14.33,17.67,27,20,36s10.33,50,12,69.67,6.33,32.67,19.33,43.33c46.33,29.68,46.83,60.43,70.45,62.78,34.13,4.65,86.54-9.76,96.54-15.1s8.91-12.41,10-17.33c6.33-28.67,20.6-41.6,28-50.33,4.61-5.44,6-15,6-20.33s3-85.67,3-102,8.33-25.67,19.67-40,9-25.67,8.33-29.67-2.34-15.61-3.33-22.67c-4-28.33,4.54-58.87,9-73C710.62,364.82,700.3,341.37,696.84,326.26ZM555.08,630.67c-19.33,6-39.33,10.67-55.33,24s-21.33,12-13.33-6c8.11-18.26,39.33-33.33,50-35.33s9.33-11.33,12.67-18,20-24,19.33-4.67S574.42,624.67,555.08,630.67Zm67.67,14a154.94,154.94,0,0,0-27.33-15.83c-11.17-4.83-15.67-9.5-16-13.17s-2.67-21.74-1.67-28.17c2.5-16.67,16.83,2.67,18.83,8.67s4.17,8,11.83,13.17,16.17,10,22.67,28.33S627.42,648.17,622.75,644.67Zm-120.67-188c-2.51-10.71-7.33-11-27.33-7s-42.33-.33-50.33-3.67-6.67-4.67-10.33-5-3.67-4.67,2-7.33S452.42,420,452.42,420c18.67-4.67,40.33-.67,28.67-12-1.37-1.33-22-21.33-39.33-3.33-22.4,23.27-27.56,21-22,15,2.37-2.56,16.2-21.64,31.33-25,14.39-3.2,5.77-8.1-7.46-13-12-1.93-18.42,2.22-42.87,18.34-33.15,21.84,5.5-36.5,32.5-55,17.57-12,10.66,6.83,46,12.5,53,8.5,59.49-29.93,52.5,19-0.65,4.56-1.58,8.86-3.78,12.28A143.37,143.37,0,0,1,536.1,401c4.67,8.33,6,18.33,4.67,24.33s-3.67,18.67,2.33,32,18.33,46,15.33,65-5,38.67,18,38.67,18-19.67,14-32.67-3.67-41.33,0-58.67,0.33-32-5.33-40.67-11-19-5-37.67a101,101,0,0,1,7.11-16.77,52,52,0,0,1-7.31-10.44c-10.64-18.92-20.5-42.39-8.12-23.5,23.5,35.88,64-43.62,99.5-11.12,17.52,16,50.86,70,7.19,36-17.35-13.5-23-14.22-37.42-6.78-11.25,8.49-22.45,20.07-4.6,23,29,4.67,14.67,7.33,21.67,15.67s7.33,13.33.33,6S643.75,389,633.75,386s-17.67-5-25,6.67-10.67,16.67,2.67,13,40.67,3.67,47,6.33,8.67,4.67,3.33,10.33-33.67,14.33-47,11.33-16.67,18.34-19,39.67-5.33,37.33-1,48.67,21.67,31,7.33,42-19,16.67-45.67,11.33-34.67-7-29.67-30.67-4.33-21.67-14-32S504.86,493,504.42,478" transform="translate(-62.98 -62.98)"/></g><g id="Ear"><path class="cls-2" d="M364.75,547.25c-1.5-9.5-5.24-41.46-8.75-63-5.5-33.75-26.75-80.5-41.25-80.5-4.75,0-5,2-10.25,3s-10.25,4.75-16.5,17-1.54,30,0,45.75c3.75,38.25,11,31.5,38,69,10.78,15,23,16,30.5,15.25S366.25,556.75,364.75,547.25ZM349.08,531c-4.67.17-6.33-6.5-20.17-14.33s-24.16-13.61-21.66-42.34c1.5-17.08,9.64-12.15,12.25-11.33,4,1.25,3.08-6,.75-10.17s-6-9.58-8-2.08c-1.44,5.4-4.17,6.92-7.5,8.92s-8.83-.67-1.67-11.17,5-10.83,3.67-13.33-4.35-5.5-7.17-3.17-12.16,3.33-3.16-5.33,19.2,5.83,28.6,17c10.31,12.25,18.57,22.5,11.23,37-4.21,8.32-3.17,17.17,3.83,21s12.5,15.5,13,19.83S353.75,530.83,349.08,531Z" transform="translate(-62.98 -62.98)"/><path class="cls-2" d="M316.25,489.5c12,30,34,29.5,11,6.5-8.06-8.06,15-26.59-3-27C309.58,468.67,316.25,489.5,316.25,489.5Z" transform="translate(-62.98 -62.98)"/></g><g id="Bow"><path class="cls-2" d="M384.75,721.25c3.08,2.79,24.64,27.12,65.46,50.82a3.44,3.44,0,0,0,5.17-3h0a3.43,3.43,0,0,1,4.82-3.14L560.75,810.4a3.43,3.43,0,0,0,1.37.29l13.43,0.06a3.43,3.43,0,0,0,1.63-.4l83-44.31a3.43,3.43,0,0,1,5,3V852.8a3.43,3.43,0,0,1-4.3,3.32l-84.06-22a3.43,3.43,0,0,0-1-.11l-15,.38a3.43,3.43,0,0,0-1.06.2L460,870a3.43,3.43,0,0,1-4.58-3.24V817a3.43,3.43,0,0,0-1.84-3c-9-4.74-48.86-27.08-72.29-53.43-2-2.25-2.75-4-3-9.75C377.52,733.93,376.75,714,384.75,721.25Z" transform="translate(-62.98 -62.98)"/></g><g id="Eyes"><path class="cls-2" d="M470.08,425c8.78-1.42,17-3.33,22.33,4s0,13.67-9.67,15.33-21.33,4-23-3.33-1.67-7.67-4-4.33-4.33,3.33-7,.67-1.33-7,2-6.67S459.75,426.67,470.08,425Z" transform="translate(-62.98 -62.98)"/><path class="cls-2" d="M427.42,435.33s-2.33,4.67.67,5S433.08,435.67,427.42,435.33Z" transform="translate(-62.98 -62.98)"/><path class="cls-2" d="M616.75,412.67c5.88-1.24,7,3,5.67,6.33s-2.67,6.33-6.67,2S610.42,414,616.75,412.67Z" transform="translate(-62.98 -62.98)"/><path class="cls-2" d="M641.42,412.67c17.07,1,25.33,6,9.67,13.33s-23.67,9-24-4.33S629.75,412,641.42,412.67Z" transform="translate(-62.98 -62.98)"/></g></svg>